<svg version="1.1" xmlns="http://www.w3.org/2000/svg" viewBox="0 0 1135.3281555175781 1018.5931396484375" width="2270.6563110351562" height="2037.186279296875">
  <!-- svg-source:excalidraw -->
  
  <defs>
    <style>
      @font-face {
        font-family: "Virgil";
        src: url("https://excalidraw.com/Virgil.woff2");
      }
      @font-face {
        font-family: "Cascadia";
        src: url("https://excalidraw.com/Cascadia.woff2");
      }
    </style>
  </defs>
  <rect x="0" y="0" width="1135.3281555175781" height="1018.5931396484375" fill="#ffffff"></rect><g stroke-linecap="round" transform="translate(10 10) rotate(0 557.6640777587891 499.29656982421875)"><path d="M-0.32 -0.71 C293.98 -4.55, 589.12 -3.56, 1115.18 0.15 M0.2 -0.04 C345.03 -2.25, 690.46 -2.28, 1115.24 -0.07 M1115.38 -0.58 C1116.11 376.42, 1115.52 752.66, 1115.89 998.37 M1115.39 -0.17 C1114.01 294.49, 1113.83 588.92, 1115.22 998.89 M1114.61 998.45 C671.21 996.34, 228.53 996.28, 0.03 997.93 M1115.29 998.67 C805.56 999.33, 494.93 999.35, -0.08 998.39 M0.65 999.36 C3.05 636.69, 2.09 273.39, 0.48 0.35 M0 998.2 C1.79 752.87, 1.58 507.34, -0.15 -0.17" stroke="#000000" stroke-width="1" fill="none"></path></g><g stroke-linecap="round" transform="translate(342.7858581542969 373.0637969970703) rotate(0 92.69595336914062 41.868316650390625)"><path d="M0.28 1.73 C45.67 -0.76, 87.99 -0.54, 183.65 -1.95 M0.63 0.2 C63.56 0.65, 126.34 -0.99, 184.89 0.15 M186.22 0.89 C186.32 29.9, 183.93 58.54, 184.58 83.63 M185.67 -0.51 C185.97 21.04, 184.85 43.89, 184.51 83.66 M183.71 82.18 C146.5 82.56, 107.11 85.1, -1.73 83.48 M186.08 83.66 C115.83 86.06, 46.77 84.76, -0.01 84.38 M-1.07 81.94 C-0.19 62.51, 1.67 44.54, -1.51 -0.15 M-0.13 83.41 C-0.55 52.49, -0.4 23.8, -0.44 -0.6" stroke="#000000" stroke-width="1" fill="none"></path></g><g stroke-linecap="round" transform="translate(283.4934997558594 230.7791290283203) rotate(0 146.15029907226562 142.11871337890625)"><path d="M206.35 13.29 C220.36 17.02, 233.96 26.75, 245.02 36.65 C256.08 46.55, 265.4 59.83, 272.71 72.7 C280.01 85.57, 285.67 99.7, 288.85 113.86 C292.03 128.02, 293.24 142.99, 291.78 157.63 C290.32 172.27, 286.4 188.45, 280.08 201.7 C273.76 214.96, 264.23 226.5, 253.88 237.15 C243.53 247.79, 231.15 258.05, 217.99 265.57 C204.82 273.08, 189.6 279.31, 174.88 282.22 C160.15 285.13, 144.32 284.82, 129.64 283.02 C114.95 281.23, 100.54 277.4, 86.76 271.45 C72.99 265.5, 58.44 257.32, 47.01 247.3 C35.58 237.29, 25.68 224.26, 18.2 211.36 C10.71 198.45, 4.89 183.93, 2.09 169.86 C-0.71 155.8, -0.4 141.44, 1.39 126.98 C3.18 112.52, 6.67 96.39, 12.84 83.1 C19.01 69.81, 28.1 57.86, 38.41 47.21 C48.73 36.56, 61.71 26.69, 74.73 19.2 C87.74 11.71, 101.93 5.24, 116.5 2.28 C131.07 -0.69, 144.91 -1.24, 162.17 1.42 C179.43 4.09, 208.76 13.84, 220.05 18.28 C231.35 22.73, 231.28 25.97, 229.94 28.09 M158.42 2.01 C173.3 0.9, 191.37 5.08, 205.31 10.69 C219.25 16.29, 231.06 25.87, 242.06 35.62 C253.06 45.37, 263.28 56.77, 271.3 69.16 C279.32 81.56, 286.77 95.47, 290.18 110 C293.59 124.53, 293.24 141.47, 291.76 156.33 C290.28 171.19, 287.2 185.79, 281.32 199.17 C275.44 212.56, 266.65 225.79, 256.48 236.63 C246.3 247.47, 233.18 256.97, 220.25 264.2 C207.32 271.43, 193.31 276.72, 178.9 280 C164.48 283.29, 148.92 284.98, 133.76 283.92 C118.6 282.86, 101.89 279.38, 87.92 273.65 C73.95 267.93, 61.34 259.59, 49.95 249.58 C38.55 239.57, 27.31 226.24, 19.55 213.58 C11.78 200.92, 6.49 187.99, 3.36 173.62 C0.23 159.26, -0.49 142.21, 0.76 127.38 C2.02 112.54, 4.9 97.89, 10.88 84.63 C16.86 71.36, 26.61 58.67, 36.64 47.77 C46.66 36.88, 58.23 26.71, 71.03 19.26 C83.83 11.82, 98.76 6.24, 113.46 3.13 C128.15 0.01, 151.55 0.5, 159.2 0.55 C166.85 0.61, 159.56 1.28, 159.37 3.45" stroke="#000000" stroke-width="1" fill="none"></path></g><g transform="translate(346.8298645019531 267.74375915527344) rotate(0 84 12.5)"><text x="0" y="18" font-family="Virgil, Segoe UI Emoji" font-size="20px" fill="#000000" text-anchor="start" style="white-space: pre;" direction="ltr">Docker Container</text></g><g transform="translate(20.742218017578125 16.043136596679688) rotate(0 56.5 12.5)"><text x="0" y="18" font-family="Virgil, Segoe UI Emoji" font-size="20px" fill="#000000" text-anchor="start" style="white-space: pre;" direction="ltr">Your laptop</text></g><g transform="translate(352.8343200683594 378.4242401123047) rotate(0 64 12.5)"><text x="0" y="18" font-family="Virgil, Segoe UI Emoji" font-size="20px" fill="#000000" text-anchor="start" style="white-space: pre;" direction="ltr">Master Node</text></g><g stroke-linecap="round" transform="translate(688.93310546875 350.93357849121094) rotate(0 115.77908325195312 41.868316650390625)"><path d="M-0.07 -0.84 C90.58 0.26, 179.59 0.16, 230.61 0.02 M0.64 0.83 C88.02 2.04, 174.59 2.48, 231.17 -0.78 M229.81 -1.33 C231.51 32.35, 230.25 64.17, 232.86 82.5 M231.6 -0.18 C230.52 24.16, 231.56 46.53, 231.78 82.94 M230.17 83.92 C141.8 83.58, 51.59 85.26, -0.72 85.06 M231.83 83.47 C144.26 85.45, 56.64 85.57, 0.55 84.04 M1.39 83.28 C-1.33 66.83, 2.57 45.49, 0.37 0.73 M0.61 83.93 C-0.73 59.18, 0.48 32.83, 0.3 0.11" stroke="#000000" stroke-width="1" fill="none"></path></g><g stroke-linecap="round" transform="translate(649.2222900390625 204.67881774902344) rotate(0 154.08969116210938 148.37387084960938)"><path d="M225.12 15.77 C239.52 20.27, 252.09 33.71, 263.32 44.48 C274.55 55.25, 285.2 66.74, 292.49 80.41 C299.79 94.08, 304.67 111.19, 307.09 126.49 C309.52 141.79, 309.71 157.15, 307.06 172.21 C304.4 187.27, 298.63 203.45, 291.17 216.85 C283.72 230.25, 273.42 242.12, 262.33 252.61 C251.24 263.11, 238.63 272.93, 224.64 279.84 C210.65 286.75, 194.34 291.54, 178.39 294.1 C162.45 296.67, 144.76 297.55, 128.96 295.22 C113.15 292.89, 97.7 287.06, 83.57 280.14 C69.43 273.22, 55.38 264.51, 44.13 253.69 C32.87 242.87, 23.21 228.98, 16.01 215.19 C8.81 201.41, 3.28 186.05, 0.95 170.95 C-1.39 155.86, -0.62 139.53, 2 124.64 C4.62 109.75, 9.31 95.18, 16.67 81.61 C24.02 68.04, 34.8 54.3, 46.14 43.24 C57.48 32.17, 70.51 22.09, 84.69 15.21 C98.87 8.33, 115.52 4.3, 131.2 1.95 C146.88 -0.41, 162.36 -1.73, 178.79 1.07 C195.21 3.87, 220.75 14.99, 229.76 18.74 C238.77 22.5, 234.02 21.47, 232.85 23.61 M213.43 11.6 C228.04 14.68, 241.18 25.4, 253.35 35.04 C265.52 44.68, 277.81 56.24, 286.46 69.45 C295.11 82.65, 301.61 99.46, 305.24 114.29 C308.88 129.11, 309.89 143.06, 308.28 158.37 C306.66 173.69, 301.49 191.88, 295.55 206.16 C289.6 220.45, 282.93 232.47, 272.59 244.06 C262.26 255.66, 246.97 267.85, 233.54 275.74 C220.1 283.63, 207.11 287.86, 191.97 291.39 C176.84 294.91, 158.79 297.8, 142.72 296.87 C126.65 295.94, 110.2 291.54, 95.55 285.79 C80.91 280.04, 66.9 272.47, 54.84 262.39 C42.79 252.31, 31.48 238.34, 23.23 225.32 C14.99 212.31, 9.29 198.91, 5.39 184.3 C1.48 169.68, -1.27 153.06, -0.21 137.61 C0.85 122.17, 5.63 105.7, 11.72 91.63 C17.81 77.57, 26.3 64.8, 36.31 53.21 C46.33 41.63, 58.21 30.24, 71.81 22.14 C85.41 14.04, 102.33 8.33, 117.91 4.62 C133.48 0.9, 149.58 -1.17, 165.26 -0.13 C180.94 0.91, 204.37 8.72, 211.99 10.85 C219.6 12.98, 211.68 10.31, 210.96 12.65" stroke="#000000" stroke-width="1" fill="none"></path></g><g transform="translate(712.5586547851562 241.64344787597656) rotate(0 84 12.5)"><text x="0" y="18" font-family="Virgil, Segoe UI Emoji" font-size="20px" fill="#000000" text-anchor="start" style="white-space: pre;" direction="ltr">Docker Container</text></g><g transform="translate(695.51513671875 357.35743713378906) rotate(0 32 25)"><text x="0" y="18" font-family="Virgil, Segoe UI Emoji" font-size="20px" fill="#000000" text-anchor="start" style="white-space: pre;" direction="ltr">Worker</text><text x="0" y="43" font-family="Virgil, Segoe UI Emoji" font-size="20px" fill="#000000" text-anchor="start" style="white-space: pre;" direction="ltr">Node1</text></g><g stroke-linecap="round" transform="translate(115.77908325195312 84.69108581542969) rotate(0 456.1348876953125 436.1011962890625)"><path d="M0.34 -0.3 C193.2 -0.44, 385.52 -1.01, 911.85 0.38 M0.32 -0.17 C190.04 0.03, 379.84 0.17, 912.35 -0.08 M912.07 0.69 C913.65 347.78, 914.91 694.97, 912.74 872.54 M912.52 0.05 C915.24 234.76, 915.53 468.67, 912.34 871.99 M911.53 872.68 C578.34 869.84, 243.82 870.59, 0.04 871.72 M912.3 872.15 C628.81 873.12, 344.51 872.74, -0.02 872.18 M-0.01 872.78 C-3.01 556.01, -3.92 240.41, 0.74 -0.4 M0.05 872.03 C-0.16 637.21, -0.36 402.2, 0.39 -0.06" stroke="#000000" stroke-width="1" fill="none"></path></g><g transform="translate(131.65347290039062 98.12173461914062) rotate(0 78 12.5)"><text x="0" y="18" font-family="Virgil, Segoe UI Emoji" font-size="20px" fill="#000000" text-anchor="start" style="white-space: pre;" direction="ltr">Docker Desktop</text></g><g stroke-linecap="round" transform="translate(208.06790161132812 165.5079803466797) rotate(0 387.5195617675781 377.5173034667969)"><path d="M0.19 -0.31 C158.83 -3.15, 316.8 -3.14, 774.6 -0.6 M0.22 0.38 C266.96 -2.62, 533.44 -1.9, 775.27 0.38 M775.52 -0.75 C773.1 184.14, 773.16 369.82, 775.28 755.45 M775.1 0.03 C776.28 221.94, 776.33 443.54, 775.26 755.09 M775.34 755.76 C519.69 756.03, 265.98 755.51, 0.04 754.71 M774.79 755.06 C528.89 756.47, 283.32 756.55, -0.31 755.41 M-0.56 755.76 C0.31 534.46, 0.54 313.22, -0.09 0.34 M-0.36 754.95 C-2.14 481.54, -1.91 207.71, -0.04 0.04" stroke="#000000" stroke-width="1" fill="none"></path></g><g transform="translate(225.56484985351562 178.8692169189453) rotate(0 81.5 12.5)"><text x="0" y="18" font-family="Virgil, Segoe UI Emoji" font-size="20px" fill="#000000" text-anchor="start" style="white-space: pre;" direction="ltr">Kind k8s cluster</text></g><g stroke-linecap="round" transform="translate(725.2720031738281 277.6534881591797) rotate(0 72.5 17.5)"><path d="M-0.84 0.48 C53.46 -0.71, 104.25 -0.83, 143.87 0.47 M-0.66 -0.09 C35.69 0.72, 70.97 -0.35, 145.07 -0.63 M145.97 0.02 C145.15 11.54, 143.3 25.4, 145.02 36.38 M145.88 0.16 C145.81 11.15, 144.79 21.15, 145.37 34.06 M143.41 35.97 C113.74 35.81, 76.68 35.59, -0.63 36.7 M145.95 34.01 C94.82 36.9, 45.6 36.05, -0.39 34.35 M0.64 36.93 C-1.46 22.53, 1.77 9.59, 0.4 0.96 M-0.33 34.62 C0.44 24.23, -0.26 15.88, 0.63 -0.95" stroke="#000000" stroke-width="1" fill="none"></path></g><g transform="translate(730.2720031738281 282.6534881591797) rotate(0 67.5 12.5)"><text x="67.5" y="18" font-family="Virgil, Segoe UI Emoji" font-size="20px" fill="#000000" text-anchor="middle" style="white-space: pre;" direction="ltr">containerd</text></g><g transform="translate(823.4028625488281 396.3346405029297) rotate(0 23 10)"><text x="0" y="14" font-family="Virgil, Segoe UI Emoji" font-size="16px" fill="#000000" text-anchor="start" style="white-space: pre;" direction="ltr">ctrctl</text></g><g stroke-linecap="round"><g transform="translate(845.3632997983241 400.11223867051217) rotate(355.24464803097186 -1.2358482253101783 -41.54958088860451)"><path d="M-0.28 -0.33 C-0.94 -14.08, -2.57 -69.31, -3.06 -82.76 M1.77 -1.56 C0.84 -15.17, -3.22 -68.23, -4.24 -81.83" stroke="#364fc7" stroke-width="1" fill="none"></path></g><g transform="translate(845.3632997983241 400.11223867051217) rotate(355.24464803097186 -1.2358482253101783 -41.54958088860451)"><path d="M7.56 -55.23 C1.64 -65.84, -0.2 -74.02, -4.51 -83.08 M7.95 -54.46 C6.42 -60.84, 2.18 -66.69, -4.35 -81.73" stroke="#364fc7" stroke-width="1" fill="none"></path></g><g transform="translate(845.3632997983241 400.11223867051217) rotate(355.24464803097186 -1.2358482253101783 -41.54958088860451)"><path d="M-12.9 -53.68 C-11.16 -64.83, -5.33 -73.58, -4.51 -83.08 M-12.52 -52.9 C-9.41 -59.49, -9.02 -65.69, -4.35 -81.73" stroke="#364fc7" stroke-width="1" fill="none"></path></g></g><g stroke-linecap="round" transform="translate(781.9326477050781 363.30442810058594) rotate(0 61.00750732421875 32.35552978515625)"><path d="M-0.24 0.79 C42.32 -0.77, 83.11 -1.7, 121.53 -1.06 M0.91 -0.95 C34.69 -0.23, 71.3 -0.65, 122.75 0.04 M120.7 -1.07 C121.47 25.14, 121.52 50.47, 121.84 64.24 M121.58 0.68 C122.56 23.16, 122.21 46.5, 122.62 64.22 M120.17 66.02 C75.28 62.6, 27.5 62.98, -0.52 66.56 M121.27 64.25 C86.01 63.33, 50.75 63.94, 0.21 64.37 M1.68 63.25 C-1.95 47.7, 0.95 33.4, -1.58 0.86 M0.78 64.25 C1.38 49.1, 1.44 31.49, 0.29 0.12" stroke="#000000" stroke-width="1" fill="none"></path></g><g transform="translate(789.3818664550781 365.0503387451172) rotate(0 43.5 10)"><text x="0" y="14" font-family="Virgil, Segoe UI Emoji" font-size="16px" fill="#000000" text-anchor="start" style="white-space: pre;" direction="ltr">DaemonSet</text></g><g stroke-linecap="round" transform="translate(320.18951416015625 725.3992462158203) rotate(0 115.77908325195312 41.868316650390625)"><path d="M1.3 1.16 C77.83 0.66, 153.52 1.43, 232.89 0.67 M-0.34 -0.55 C84.64 -1.71, 169.1 -2.37, 230.88 -0.19 M232.61 0.75 C231.81 26.16, 232.86 55.89, 232.24 84.97 M232.5 0.96 C232.14 16.66, 233.08 34.47, 231.28 83.27 M231.81 83.05 C155.49 82.74, 80.05 84.24, -0.73 84.3 M232.25 84.13 C174.09 85.91, 116.55 85.58, 0.81 83.35 M-1.52 84.58 C0.18 52.26, 1.55 20.74, 1.11 -0.95 M-0.91 83.87 C-0.38 55.55, -0.5 27.12, 0.42 0.05" stroke="#000000" stroke-width="1" fill="none"></path></g><g stroke-linecap="round" transform="translate(280.47869873046875 579.1444854736328) rotate(0 154.08969116210938 148.37387084960938)"><path d="M184.7 3.71 C200.08 4.46, 216.27 12.25, 230.1 19.76 C243.93 27.27, 257.06 37.73, 267.68 48.76 C278.29 59.78, 287.25 72.19, 293.78 85.93 C300.3 99.67, 305.06 116.06, 306.81 131.21 C308.56 146.35, 307.47 161.85, 304.26 176.81 C301.05 191.77, 295.13 207.5, 287.55 220.96 C279.97 234.41, 270.48 247.07, 258.77 257.54 C247.06 268.01, 231.73 277.4, 217.3 283.79 C202.87 290.19, 187.98 294.12, 172.21 295.9 C156.44 297.68, 138.33 297.48, 122.68 294.49 C107.03 291.51, 91.86 285.76, 78.29 277.99 C64.73 270.23, 51.86 259.26, 41.3 247.89 C30.75 236.52, 21.53 223.37, 14.98 209.79 C8.42 196.21, 3.99 181.63, 1.96 166.42 C-0.07 151.2, -0.29 133.64, 2.8 118.49 C5.9 103.35, 12.75 88.84, 20.53 75.54 C28.31 62.24, 37.88 49.03, 49.49 38.71 C61.1 28.38, 75.7 19.85, 90.18 13.59 C104.66 7.33, 117.58 2.16, 136.35 1.13 C155.12 0.11, 188.99 4.77, 202.79 7.46 C216.59 10.15, 219.87 14.95, 219.17 17.27 M180.53 3.24 C196.05 3.49, 211.71 10.19, 225.8 17.17 C239.9 24.14, 253.97 34.03, 265.09 45.09 C276.21 56.14, 285.75 69.76, 292.53 83.49 C299.31 97.22, 303.68 112.68, 305.78 127.46 C307.89 142.24, 307.85 157.18, 305.17 172.17 C302.48 187.16, 296.9 203.73, 289.7 217.4 C282.49 231.06, 272.93 243.52, 261.94 254.15 C250.95 264.78, 237.76 274.45, 223.74 281.16 C209.72 287.87, 193.57 292.18, 177.83 294.39 C162.1 296.6, 144.94 297.03, 129.33 294.41 C113.72 291.79, 98.3 285.81, 84.16 278.68 C70.02 271.55, 55.82 262.46, 44.48 251.63 C33.15 240.79, 23.36 227.1, 16.13 213.67 C8.9 200.25, 3.43 185.9, 1.1 171.07 C-1.22 156.23, -0.75 139.91, 2.17 124.67 C5.09 109.43, 11.46 93.22, 18.63 79.62 C25.79 66.02, 33.95 53.7, 45.15 43.07 C56.34 32.44, 71.29 22.65, 85.82 15.84 C100.35 9.02, 116.93 4.54, 132.31 2.19 C147.68 -0.17, 170.55 1.32, 178.07 1.71 C185.6 2.11, 177.61 1.89, 177.47 4.55" stroke="#000000" stroke-width="1" fill="none"></path></g><g transform="translate(343.8150634765625 616.1091156005859) rotate(0 84 12.5)"><text x="0" y="18" font-family="Virgil, Segoe UI Emoji" font-size="20px" fill="#000000" text-anchor="start" style="white-space: pre;" direction="ltr">Docker Container</text></g><g transform="translate(326.77154541015625 731.8231048583984) rotate(0 32 25)"><text x="0" y="18" font-family="Virgil, Segoe UI Emoji" font-size="20px" fill="#000000" text-anchor="start" style="white-space: pre;" direction="ltr">Worker</text><text x="0" y="43" font-family="Virgil, Segoe UI Emoji" font-size="20px" fill="#000000" text-anchor="start" style="white-space: pre;" direction="ltr">Node2</text></g><g stroke-linecap="round" transform="translate(356.5284118652344 652.1191558837891) rotate(0 72.5 17.5)"><path d="M-0.93 0.37 C55.02 1.19, 108.23 0.76, 146.67 -0.81 M-0.89 -0.86 C33.29 -0.11, 68.55 0.09, 144.03 0.52 M146.33 -0.37 C145.73 13.04, 143.17 25.57, 144.24 36.88 M145.71 -0.02 C144.64 13.38, 145.18 27.81, 145.01 35.15 M144.65 35.58 C106.54 34.8, 68.78 33.29, 1.53 36.64 M145.54 35.4 C95.81 35.7, 45.46 35.54, -0.38 34.24 M1.03 35.08 C1.17 22.08, 0.77 10.61, 1.46 -1.82 M-0.68 34.59 C0.62 24.08, 0.63 13.91, -0.24 -0.56" stroke="#000000" stroke-width="1" fill="none"></path></g><g transform="translate(361.5284118652344 657.1191558837891) rotate(0 67.5 12.5)"><text x="67.5" y="18" font-family="Virgil, Segoe UI Emoji" font-size="20px" fill="#000000" text-anchor="middle" style="white-space: pre;" direction="ltr">containerd</text></g><g transform="translate(454.6592712402344 770.8003082275391) rotate(0 23 10)"><text x="0" y="14" font-family="Virgil, Segoe UI Emoji" font-size="16px" fill="#000000" text-anchor="start" style="white-space: pre;" direction="ltr">ctrctl</text></g><g stroke-linecap="round"><g transform="translate(476.61970848973033 774.5779063951215) rotate(355.24464803097186 -0.7042204230620541 -41.45858137094484)"><path d="M0.94 0.48 C0.73 -13.12, -1.4 -67.63, -1.82 -81.39 M-0.02 -0.32 C-0.27 -14.33, -2.05 -69.94, -2.35 -83.39" stroke="#364fc7" stroke-width="1" fill="none"></path></g><g transform="translate(476.61970848973033 774.5779063951215) rotate(355.24464803097186 -0.7042204230620541 -41.45858137094484)"><path d="M9.49 -54.17 C6.21 -60.81, 2.24 -70.84, -3.04 -83.56 M8.46 -55.14 C6.57 -62.45, 4.79 -67, -2.21 -84.38" stroke="#364fc7" stroke-width="1" fill="none"></path></g><g transform="translate(476.61970848973033 774.5779063951215) rotate(355.24464803097186 -0.7042204230620541 -41.45858137094484)"><path d="M-11.03 -53.59 C-9.11 -60.54, -7.89 -70.72, -3.04 -83.56 M-12.05 -54.57 C-9.61 -61.83, -7.05 -66.51, -2.21 -84.38" stroke="#364fc7" stroke-width="1" fill="none"></path></g></g><g stroke-linecap="round" transform="translate(413.1890563964844 737.7700958251953) rotate(0 61.00750732421875 32.35552978515625)"><path d="M1.34 0.37 C40.56 -1.29, 76.48 -1.18, 121.85 -1.77 M0.36 -0.03 C25.16 0.8, 52.63 0.42, 121.03 0.66 M120.13 1.96 C121.47 20.11, 124.15 36, 120.84 66.12 M122.28 0.11 C121.84 19.41, 121.43 38.24, 121.42 64.54 M121 63.87 C83.4 66.75, 42.65 65.73, 1.6 65.78 M122.78 64.1 C80.11 63.4, 39.38 63.99, 0.03 65.23 M0.71 64.28 C1.1 43.21, -0.09 24.24, -0.16 -1.37 M0.43 65.56 C-0.51 47.37, 0.02 31.55, 0.12 0.76" stroke="#000000" stroke-width="1" fill="none"></path></g><g transform="translate(420.6382751464844 739.5160064697266) rotate(0 43.5 10)"><text x="0" y="14" font-family="Virgil, Segoe UI Emoji" font-size="16px" fill="#000000" text-anchor="start" style="white-space: pre;" direction="ltr">DaemonSet</text></g><g stroke-linecap="round" transform="translate(692.0162963867188 745.0321807861328) rotate(0 115.77908325195312 41.868316650390625)"><path d="M-0.39 -1.49 C47.28 -1.37, 91.78 -0.41, 231.71 -0.45 M-0.83 -0.11 C48.1 0.6, 95.11 1.3, 232.32 -0.09 M230.33 -0.98 C232.17 26.86, 232.65 52.05, 232.36 83.24 M230.82 -0.45 C231.4 30.33, 229.97 62.03, 231.08 83.45 M230.96 82.88 C176.65 85.05, 118.29 85.88, -1.65 83.91 M231.68 83.62 C158.76 84.73, 84.46 84.85, -0.01 84.47 M-0.1 85.71 C-1.23 50.38, 0.98 17.5, 0.16 0.71 M-0.4 83.12 C-0.88 54.03, -1.12 23.58, -0.37 0.16" stroke="#000000" stroke-width="1" fill="none"></path></g><g stroke-linecap="round" transform="translate(652.3054809570312 598.7774200439453) rotate(0 154.08969116210938 148.37387084960938)"><path d="M188.34 3.62 C203.5 4.44, 218.7 11.94, 232.08 19.62 C245.46 27.3, 258.22 38.13, 268.62 49.72 C279.01 61.3, 287.9 75.08, 294.44 89.13 C300.98 103.18, 306.26 118.69, 307.86 134.03 C309.45 149.38, 307.36 166.26, 304.01 181.19 C300.65 196.12, 295.68 210.44, 287.73 223.62 C279.77 236.81, 268.24 250.27, 256.27 260.31 C244.3 270.35, 230.56 277.89, 215.9 283.85 C201.24 289.8, 184.12 294.45, 168.31 296.05 C152.5 297.65, 136.47 296.68, 121.04 293.44 C105.61 290.2, 89.49 284.27, 75.72 276.59 C61.94 268.91, 49.04 258.8, 38.4 247.36 C27.75 235.93, 18.25 222.22, 11.85 208.01 C5.44 193.79, 1.23 177.52, -0.03 162.09 C-1.3 146.66, 0.84 130.29, 4.27 115.41 C7.7 100.53, 12.65 85.88, 20.53 72.8 C28.41 59.72, 39.62 46.87, 51.55 36.92 C63.48 26.97, 77.38 19.22, 92.11 13.12 C106.84 7.02, 123.62 1.72, 139.95 0.32 C156.29 -1.07, 181.27 3.66, 190.12 4.76 C198.97 5.85, 193.48 4.72, 193.06 6.87 M163.11 0.4 C178.21 -0.95, 194.36 5.37, 208.73 10.64 C223.11 15.91, 237.17 22.6, 249.37 32.03 C261.57 41.46, 272.81 54.06, 281.94 67.22 C291.07 80.38, 299.85 96.41, 304.13 110.98 C308.41 125.56, 308.62 139.38, 307.6 154.66 C306.58 169.94, 303.78 188.26, 298.02 202.66 C292.25 217.06, 282.86 229.49, 273.01 241.08 C263.16 252.67, 252.01 263.71, 238.92 272.22 C225.83 280.73, 209.75 287.83, 194.48 292.12 C179.21 296.41, 162.99 298.92, 147.31 297.97 C131.63 297.03, 115.53 292.13, 100.4 286.43 C85.27 280.74, 68.98 273.36, 56.51 263.79 C44.04 254.22, 34.13 241.87, 25.59 229 C17.05 216.14, 9.47 201.19, 5.28 186.6 C1.08 172.01, -0.33 156.48, 0.43 141.48 C1.19 126.49, 4.24 110.74, 9.84 96.63 C15.45 82.51, 23.8 69.03, 34.05 56.79 C44.29 44.55, 58.03 31.62, 71.3 23.19 C84.57 14.76, 98.67 10.21, 113.67 6.23 C128.67 2.26, 153.19 -0.18, 161.28 -0.65 C169.38 -1.13, 162.14 0.65, 162.25 3.37" stroke="#000000" stroke-width="1" fill="none"></path></g><g transform="translate(715.641845703125 635.7420501708984) rotate(0 84 12.5)"><text x="0" y="18" font-family="Virgil, Segoe UI Emoji" font-size="20px" fill="#000000" text-anchor="start" style="white-space: pre;" direction="ltr">Docker Container</text></g><g transform="translate(698.5983276367188 751.4560394287109) rotate(0 32 25)"><text x="0" y="18" font-family="Virgil, Segoe UI Emoji" font-size="20px" fill="#000000" text-anchor="start" style="white-space: pre;" direction="ltr">Worker</text><text x="0" y="43" font-family="Virgil, Segoe UI Emoji" font-size="20px" fill="#000000" text-anchor="start" style="white-space: pre;" direction="ltr">Node3</text></g><g stroke-linecap="round" transform="translate(728.3551940917969 671.7520904541016) rotate(0 72.5 17.5)"><path d="M-1.53 1.69 C30.97 -0.94, 59.7 -2.24, 144.24 -1.96 M-0.51 0.65 C42.5 0.15, 83.32 1.02, 145.42 -0.62 M145.44 -0.23 C145.8 8.29, 146.43 15.76, 146.04 33.52 M144.18 -0.22 C144.74 8.64, 144.62 18.69, 145.58 34.64 M143.01 36.19 C106.88 35.36, 72.99 34.16, 1.81 35.29 M144.47 34.23 C103.43 34.54, 62.8 33.41, -0.73 34.95 M0.76 34.5 C0.41 21.76, 1.43 8.99, 1.54 -0.8 M-0.34 34.95 C-0.34 26.82, 0.35 18.15, 0.71 -0.03" stroke="#000000" stroke-width="1" fill="none"></path></g><g transform="translate(733.3551940917969 676.7520904541016) rotate(0 67.5 12.5)"><text x="67.5" y="18" font-family="Virgil, Segoe UI Emoji" font-size="20px" fill="#000000" text-anchor="middle" style="white-space: pre;" direction="ltr">containerd</text></g><g transform="translate(826.4860534667969 790.4332427978516) rotate(0 23 10)"><text x="0" y="14" font-family="Virgil, Segoe UI Emoji" font-size="16px" fill="#000000" text-anchor="start" style="white-space: pre;" direction="ltr">ctrctl</text></g><g stroke-linecap="round"><g transform="translate(848.4464907162928 794.210840965434) rotate(355.24464803097186 -1.8204887269080245 -41.51587632164893)"><path d="M0.11 -0.32 C-0.36 -14.28, -3.22 -68.97, -3.75 -82.71 M-1.29 -1.54 C-1.33 -14.86, -1.16 -68.32, -1.63 -81.75" stroke="#364fc7" stroke-width="1" fill="none"></path></g><g transform="translate(848.4464907162928 794.210840965434) rotate(355.24464803097186 -1.8204887269080245 -41.51587632164893)"><path d="M8.46 -55.57 C4.55 -60.73, 2.05 -66.5, -0.87 -82.1 M8.9 -53.57 C6.94 -60.17, 2.91 -68.07, -1.65 -81.39" stroke="#364fc7" stroke-width="1" fill="none"></path></g><g transform="translate(848.4464907162928 794.210840965434) rotate(355.24464803097186 -1.8204887269080245 -41.51587632164893)"><path d="M-12.06 -55.3 C-11.38 -60.54, -9.29 -66.37, -0.87 -82.1 M-11.62 -53.31 C-8.47 -60.15, -7.39 -68.11, -1.65 -81.39" stroke="#364fc7" stroke-width="1" fill="none"></path></g></g><g stroke-linecap="round" transform="translate(785.0158386230469 757.4030303955078) rotate(0 61.00750732421875 32.35552978515625)"><path d="M-1.87 -1.83 C46.14 -1.63, 93.55 1.09, 121.67 -1.02 M0.12 0.77 C44.94 -0.49, 88.55 0.11, 122.37 0.22 M123.45 -1.82 C123.31 17.19, 121.38 38.54, 120.43 63.07 M121.42 0.83 C122.28 17.63, 121.2 36.5, 122.12 63.72 M122.35 63.71 C79.95 65.12, 34.01 66.07, -1.84 63.65 M122.94 64.45 C94.13 65.73, 68.68 65.05, -0.24 65.09 M1.18 66.59 C1.49 46.13, -1.28 28.97, 0.68 -0.67 M0.32 64.55 C0.95 45.61, 1.23 27.55, -0.64 -0.1" stroke="#000000" stroke-width="1" fill="none"></path></g><g transform="translate(792.4650573730469 759.1489410400391) rotate(0 43.5 10)"><text x="0" y="14" font-family="Virgil, Segoe UI Emoji" font-size="16px" fill="#000000" text-anchor="start" style="white-space: pre;" direction="ltr">DaemonSet</text></g><g stroke-linecap="round" transform="translate(363.5683288574219 302.64598083496094) rotate(0 72.5 17.5)"><path d="M1.56 0.16 C39.78 -1.22, 78.32 0.03, 145.64 -1.81 M0.66 -0.46 C42.46 -0.69, 85.96 -1.09, 144.82 -0.19 M146.84 -0.5 C147 12.74, 144.34 28.29, 146.06 34.42 M144.63 0.21 C144.45 13.16, 145.77 27.57, 144.09 34.61 M145.03 33.16 C115.06 37.82, 79.59 34.32, -0.51 35.96 M145.73 35.65 C110.07 33.55, 73.55 34.75, 0.87 35.93 M1.59 33.96 C-0.67 24.93, 0.81 14.28, 0.7 1.53 M0.69 34.17 C1.08 21.62, -0.12 7.59, 0.13 0.25" stroke="#000000" stroke-width="1" fill="none"></path></g><g transform="translate(368.5683288574219 307.64598083496094) rotate(0 67.5 12.5)"><text x="67.5" y="18" font-family="Virgil, Segoe UI Emoji" font-size="20px" fill="#000000" text-anchor="middle" style="white-space: pre;" direction="ltr">containerd</text></g></svg>