<svg version="1.1" xmlns="http://www.w3.org/2000/svg" viewBox="0 0 1135.3281555175781 1018.5931396484375" width="2270.6563110351562" height="2037.186279296875">
  <!-- svg-source:excalidraw -->
  
  <defs>
    <style>
      @font-face {
        font-family: "Virgil";
        src: url("https://excalidraw.com/Virgil.woff2");
      }
      @font-face {
        font-family: "Cascadia";
        src: url("https://excalidraw.com/Cascadia.woff2");
      }
    </style>
  </defs>
  <rect x="0" y="0" width="1135.3281555175781" height="1018.5931396484375" fill="#ffffff"></rect><g stroke-linecap="round" transform="translate(741.7178039550781 417.92161560058594) rotate(0 61.00750732421875 32.35552978515625)"><path d="M-0.24 0.79 C42.32 -0.77, 83.11 -1.7, 121.53 -1.06 M0.91 -0.95 C34.69 -0.23, 71.3 -0.65, 122.75 0.04 M120.7 -1.07 C121.47 25.14, 121.52 50.47, 121.84 64.24 M121.58 0.68 C122.56 23.16, 122.21 46.5, 122.62 64.22 M120.17 66.02 C75.28 62.6, 27.5 62.98, -0.52 66.56 M121.27 64.25 C86.01 63.33, 50.75 63.94, 0.21 64.37 M1.68 63.25 C-1.95 47.7, 0.95 33.4, -1.58 0.86 M0.78 64.25 C1.38 49.1, 1.44 31.49, 0.29 0.12" stroke="#000000" stroke-width="1" fill="none"></path></g><g transform="translate(758.7842102050781 417.0386199951172) rotate(0 43.5 10)"><text x="0" y="14" font-family="Virgil, Segoe UI Emoji" font-size="16px" fill="#000000" text-anchor="start" style="white-space: pre;" direction="ltr">DaemonSet</text></g><g stroke-linecap="round" transform="translate(10 10) rotate(0 557.6640777587891 499.29656982421875)"><path d="M-0.32 -0.71 C293.98 -4.55, 589.12 -3.56, 1115.18 0.15 M0.2 -0.04 C345.03 -2.25, 690.46 -2.28, 1115.24 -0.07 M1115.38 -0.58 C1116.11 376.42, 1115.52 752.66, 1115.89 998.37 M1115.39 -0.17 C1114.01 294.49, 1113.83 588.92, 1115.22 998.89 M1114.61 998.45 C671.21 996.34, 228.53 996.28, 0.03 997.93 M1115.29 998.67 C805.56 999.33, 494.93 999.35, -0.08 998.39 M0.65 999.36 C3.05 636.69, 2.09 273.39, 0.48 0.35 M0 998.2 C1.79 752.87, 1.58 507.34, -0.15 -0.17" stroke="#000000" stroke-width="1" fill="none"></path></g><g stroke-linecap="round" transform="translate(283.6809997558594 230.5877227783203) rotate(0 146.15029907226562 142.11871337890625)"><path d="M206.35 13.29 C220.36 17.02, 233.96 26.75, 245.02 36.65 C256.08 46.55, 265.4 59.83, 272.71 72.7 C280.01 85.57, 285.67 99.7, 288.85 113.86 C292.03 128.02, 293.24 142.99, 291.78 157.63 C290.32 172.27, 286.4 188.45, 280.08 201.7 C273.76 214.96, 264.23 226.5, 253.88 237.15 C243.53 247.79, 231.15 258.05, 217.99 265.57 C204.82 273.08, 189.6 279.31, 174.88 282.22 C160.15 285.13, 144.32 284.82, 129.64 283.02 C114.95 281.23, 100.54 277.4, 86.76 271.45 C72.99 265.5, 58.44 257.32, 47.01 247.3 C35.58 237.29, 25.68 224.26, 18.2 211.36 C10.71 198.45, 4.89 183.93, 2.09 169.86 C-0.71 155.8, -0.4 141.44, 1.39 126.98 C3.18 112.52, 6.67 96.39, 12.84 83.1 C19.01 69.81, 28.1 57.86, 38.41 47.21 C48.73 36.56, 61.71 26.69, 74.73 19.2 C87.74 11.71, 101.93 5.24, 116.5 2.28 C131.07 -0.69, 144.91 -1.24, 162.17 1.42 C179.43 4.09, 208.76 13.84, 220.05 18.28 C231.35 22.73, 231.28 25.97, 229.94 28.09 M158.42 2.01 C173.3 0.9, 191.37 5.08, 205.31 10.69 C219.25 16.29, 231.06 25.87, 242.06 35.62 C253.06 45.37, 263.28 56.77, 271.3 69.16 C279.32 81.56, 286.77 95.47, 290.18 110 C293.59 124.53, 293.24 141.47, 291.76 156.33 C290.28 171.19, 287.2 185.79, 281.32 199.17 C275.44 212.56, 266.65 225.79, 256.48 236.63 C246.3 247.47, 233.18 256.97, 220.25 264.2 C207.32 271.43, 193.31 276.72, 178.9 280 C164.48 283.29, 148.92 284.98, 133.76 283.92 C118.6 282.86, 101.89 279.38, 87.92 273.65 C73.95 267.93, 61.34 259.59, 49.95 249.58 C38.55 239.57, 27.31 226.24, 19.55 213.58 C11.78 200.92, 6.49 187.99, 3.36 173.62 C0.23 159.26, -0.49 142.21, 0.76 127.38 C2.02 112.54, 4.9 97.89, 10.88 84.63 C16.86 71.36, 26.61 58.67, 36.64 47.77 C46.66 36.88, 58.23 26.71, 71.03 19.26 C83.83 11.82, 98.76 6.24, 113.46 3.13 C128.15 0.01, 151.55 0.5, 159.2 0.55 C166.85 0.61, 159.56 1.28, 159.37 3.45" stroke="#000000" stroke-width="1" fill="none"></path></g><g transform="translate(20.742218017578125 16.043136596679688) rotate(0 56.5 12.5)"><text x="0" y="18" font-family="Virgil, Segoe UI Emoji" font-size="20px" fill="#000000" text-anchor="start" style="white-space: pre;" direction="ltr">Your laptop</text></g><g stroke-linecap="round" transform="translate(649.2222900390625 204.67881774902344) rotate(0 154.08969116210938 148.37387084960938)"><path d="M225.12 15.77 C239.52 20.27, 252.09 33.71, 263.32 44.48 C274.55 55.25, 285.2 66.74, 292.49 80.41 C299.79 94.08, 304.67 111.19, 307.09 126.49 C309.52 141.79, 309.71 157.15, 307.06 172.21 C304.4 187.27, 298.63 203.45, 291.17 216.85 C283.72 230.25, 273.42 242.12, 262.33 252.61 C251.24 263.11, 238.63 272.93, 224.64 279.84 C210.65 286.75, 194.34 291.54, 178.39 294.1 C162.45 296.67, 144.76 297.55, 128.96 295.22 C113.15 292.89, 97.7 287.06, 83.57 280.14 C69.43 273.22, 55.38 264.51, 44.13 253.69 C32.87 242.87, 23.21 228.98, 16.01 215.19 C8.81 201.41, 3.28 186.05, 0.95 170.95 C-1.39 155.86, -0.62 139.53, 2 124.64 C4.62 109.75, 9.31 95.18, 16.67 81.61 C24.02 68.04, 34.8 54.3, 46.14 43.24 C57.48 32.17, 70.51 22.09, 84.69 15.21 C98.87 8.33, 115.52 4.3, 131.2 1.95 C146.88 -0.41, 162.36 -1.73, 178.79 1.07 C195.21 3.87, 220.75 14.99, 229.76 18.74 C238.77 22.5, 234.02 21.47, 232.85 23.61 M213.43 11.6 C228.04 14.68, 241.18 25.4, 253.35 35.04 C265.52 44.68, 277.81 56.24, 286.46 69.45 C295.11 82.65, 301.61 99.46, 305.24 114.29 C308.88 129.11, 309.89 143.06, 308.28 158.37 C306.66 173.69, 301.49 191.88, 295.55 206.16 C289.6 220.45, 282.93 232.47, 272.59 244.06 C262.26 255.66, 246.97 267.85, 233.54 275.74 C220.1 283.63, 207.11 287.86, 191.97 291.39 C176.84 294.91, 158.79 297.8, 142.72 296.87 C126.65 295.94, 110.2 291.54, 95.55 285.79 C80.91 280.04, 66.9 272.47, 54.84 262.39 C42.79 252.31, 31.48 238.34, 23.23 225.32 C14.99 212.31, 9.29 198.91, 5.39 184.3 C1.48 169.68, -1.27 153.06, -0.21 137.61 C0.85 122.17, 5.63 105.7, 11.72 91.63 C17.81 77.57, 26.3 64.8, 36.31 53.21 C46.33 41.63, 58.21 30.24, 71.81 22.14 C85.41 14.04, 102.33 8.33, 117.91 4.62 C133.48 0.9, 149.58 -1.17, 165.26 -0.13 C180.94 0.91, 204.37 8.72, 211.99 10.85 C219.6 12.98, 211.68 10.31, 210.96 12.65" stroke="#000000" stroke-width="1" fill="none"></path></g><g stroke-linecap="round" transform="translate(115.77908325195312 84.69108581542969) rotate(0 456.1348876953125 436.1011962890625)"><path d="M0.34 -0.3 C193.2 -0.44, 385.52 -1.01, 911.85 0.38 M0.32 -0.17 C190.04 0.03, 379.84 0.17, 912.35 -0.08 M912.07 0.69 C913.65 347.78, 914.91 694.97, 912.74 872.54 M912.52 0.05 C915.24 234.76, 915.53 468.67, 912.34 871.99 M911.53 872.68 C578.34 869.84, 243.82 870.59, 0.04 871.72 M912.3 872.15 C628.81 873.12, 344.51 872.74, -0.02 872.18 M-0.01 872.78 C-3.01 556.01, -3.92 240.41, 0.74 -0.4 M0.05 872.03 C-0.16 637.21, -0.36 402.2, 0.39 -0.06" stroke="#000000" stroke-width="1" fill="none"></path></g><g transform="translate(131.65347290039062 98.12173461914062) rotate(0 78 12.5)"><text x="0" y="18" font-family="Virgil, Segoe UI Emoji" font-size="20px" fill="#000000" text-anchor="start" style="white-space: pre;" direction="ltr">Docker Desktop</text></g><g stroke-linecap="round" transform="translate(208.06790161132812 165.5079803466797) rotate(0 387.5195617675781 377.5173034667969)"><path d="M0.19 -0.31 C158.83 -3.15, 316.8 -3.14, 774.6 -0.6 M0.22 0.38 C266.96 -2.62, 533.44 -1.9, 775.27 0.38 M775.52 -0.75 C773.1 184.14, 773.16 369.82, 775.28 755.45 M775.1 0.03 C776.28 221.94, 776.33 443.54, 775.26 755.09 M775.34 755.76 C519.69 756.03, 265.98 755.51, 0.04 754.71 M774.79 755.06 C528.89 756.47, 283.32 756.55, -0.31 755.41 M-0.56 755.76 C0.31 534.46, 0.54 313.22, -0.09 0.34 M-0.36 754.95 C-2.14 481.54, -1.91 207.71, -0.04 0.04" stroke="#000000" stroke-width="1" fill="none"></path></g><g transform="translate(225.56484985351562 178.8692169189453) rotate(0 81.5 12.5)"><text x="0" y="18" font-family="Virgil, Segoe UI Emoji" font-size="20px" fill="#000000" text-anchor="start" style="white-space: pre;" direction="ltr">Kind k8s cluster</text></g><g transform="translate(782.5708312988281 450.2291717529297) rotate(0 23 10)"><text x="0" y="14" font-family="Virgil, Segoe UI Emoji" font-size="16px" fill="#000000" text-anchor="start" style="white-space: pre;" direction="ltr">ctrctl</text></g><g stroke-linecap="round"><g transform="translate(802.8697845565559 449.9875141236282) rotate(355.24464803097186 3.241528403749953 -38.26008821629438)"><path d="M-0.28 -0.33 C0.7 -12.98, 5.63 -63.82, 6.77 -76.19 M1.77 -1.56 C2.47 -14.08, 4.97 -62.75, 5.59 -75.25" stroke="#364fc7" stroke-width="1" fill="none"></path></g><g transform="translate(802.8697845565559 449.9875141236282) rotate(355.24464803097186 3.241528403749953 -38.26008821629438)"><path d="M13.86 -47.31 C9.26 -58.42, 8.75 -67.09, 5.32 -76.5 M14.24 -46.54 C13.52 -53.2, 10.08 -59.35, 5.48 -75.15" stroke="#364fc7" stroke-width="1" fill="none"></path></g><g transform="translate(802.8697845565559 449.9875141236282) rotate(355.24464803097186 3.241528403749953 -38.26008821629438)"><path d="M-6.64 -48.35 C-3.57 -59.02, 3.6 -67.31, 5.32 -76.5 M-6.25 -47.57 C-2.35 -53.85, -1.16 -59.77, 5.48 -75.15" stroke="#364fc7" stroke-width="1" fill="none"></path></g></g><g stroke-linecap="round" transform="translate(352.5722351074219 369.52098083496094) rotate(0 72.5 17.5)"><path d="M1.56 0.16 C39.78 -1.22, 78.32 0.03, 145.64 -1.81 M0.66 -0.46 C42.46 -0.69, 85.96 -1.09, 144.82 -0.19 M146.84 -0.5 C147 12.74, 144.34 28.29, 146.06 34.42 M144.63 0.21 C144.45 13.16, 145.77 27.57, 144.09 34.61 M145.03 33.16 C115.06 37.82, 79.59 34.32, -0.51 35.96 M145.73 35.65 C110.07 33.55, 73.55 34.75, 0.87 35.93 M1.59 33.96 C-0.67 24.93, 0.81 14.28, 0.7 1.53 M0.69 34.17 C1.08 21.62, -0.12 7.59, 0.13 0.25" stroke="#000000" stroke-width="1" fill="none"></path></g><g transform="translate(357.5722351074219 374.52098083496094) rotate(0 67.5 12.5)"><text x="67.5" y="18" font-family="Virgil, Segoe UI Emoji" font-size="20px" fill="#000000" text-anchor="middle" style="white-space: pre;" direction="ltr">containerd</text></g><g transform="translate(319.1267395019531 272.98204040527344) rotate(0 115 23)"><text x="0" y="32" font-family="Virgil, Segoe UI Emoji" font-size="36px" fill="#000000" text-anchor="start" style="white-space: pre;" direction="ltr">Master Node</text></g><g transform="translate(343.77735900878906 312.51141357421875) rotate(0 92 12.5)"><text x="0" y="18" font-family="Virgil, Segoe UI Emoji" font-size="20px" fill="#000000" text-anchor="start" style="white-space: pre;" direction="ltr">(Docker Container)</text></g><g transform="translate(692.1757965087891 258.3717269897461) rotate(0 114 23)"><text x="0" y="32" font-family="Virgil, Segoe UI Emoji" font-size="36px" fill="#000000" text-anchor="start" style="white-space: pre;" direction="ltr">Worker Node1</text></g><g transform="translate(717.017822265625 298.2839126586914) rotate(0 92 12.5)"><text x="0" y="18" font-family="Virgil, Segoe UI Emoji" font-size="20px" fill="#000000" text-anchor="start" style="white-space: pre;" direction="ltr">(Docker Container)</text></g><g stroke-linecap="round" transform="translate(741.4140777587891 332.87860107421875) rotate(0 72.5 17.5)"><path d="M-0.91 1.69 C35.92 0.8, 73.03 0.65, 145.41 0.45 M0.39 0.46 C53.6 0.94, 106.15 0.92, 145.71 -0.35 M145.1 0.58 C146.77 12.05, 145.39 24, 145.03 36.53 M144.02 0.33 C145.19 8.88, 145.19 17.12, 145.87 34.51 M145.51 35.22 C108.94 36.69, 70.86 35.98, 1.08 33.31 M144.68 35.43 C107.62 35.25, 68.75 35.43, 0.9 34.26 M-1.85 36.67 C0.74 26.85, 1.65 15.6, -1.21 -0.11 M-0.15 34.23 C1.03 23.84, -0.05 12.84, -1 0.47" stroke="#000000" stroke-width="1" fill="none"></path></g><g transform="translate(746.4140777587891 337.87860107421875) rotate(0 67.5 12.5)"><text x="67.5" y="18" font-family="Virgil, Segoe UI Emoji" font-size="20px" fill="#000000" text-anchor="middle" style="white-space: pre;" direction="ltr">containerd</text></g><g stroke-linecap="round" transform="translate(355.8550567626953 804.9545593261719) rotate(0 61.00750732421875 32.35552978515625)"><path d="M-0.91 -0.95 C29.92 0.05, 59.66 -0.3, 123.18 1.01 M0.21 0.94 C46.98 0.23, 91.11 -0.14, 122.78 -0.92 M121.43 0.92 C122.61 22.13, 120.52 42.31, 122.64 64.42 M121.53 -1 C121.42 23.44, 120.53 44.78, 121.64 65.56 M120.99 64.28 C75.66 63.36, 27.17 63.17, -0.09 66.48 M122.72 64.41 C84.79 63.04, 47.27 62.85, 0.47 64.78 M-0.55 63.61 C-0.77 48.18, 2.21 34.72, -1.04 0.29 M-0.36 65.02 C-1.06 46.32, -0.35 28.74, 0.45 -0.49" stroke="#000000" stroke-width="1" fill="none"></path></g><g transform="translate(372.9214630126953 804.0715637207031) rotate(0 43.5 10)"><text x="0" y="14" font-family="Virgil, Segoe UI Emoji" font-size="16px" fill="#000000" text-anchor="start" style="white-space: pre;" direction="ltr">DaemonSet</text></g><g stroke-linecap="round" transform="translate(263.3595428466797 591.7117614746094) rotate(0 154.08969116210938 148.37387084960938)"><path d="M200.16 7.12 C215.29 9.08, 230.82 18.34, 243.62 27.09 C256.41 35.84, 267.4 47.25, 276.94 59.64 C286.48 72.04, 295.73 87.17, 300.87 101.44 C306.01 115.72, 307.85 130.04, 307.8 145.29 C307.75 160.54, 305.36 178.15, 300.58 192.94 C295.8 207.73, 288.07 221.7, 279.13 234.02 C270.2 246.33, 259.57 257.62, 246.97 266.83 C234.37 276.04, 218.62 284.15, 203.53 289.27 C188.45 294.38, 172.43 297.27, 156.45 297.51 C140.48 297.76, 122.82 295.39, 107.69 290.72 C92.55 286.06, 78.38 278.58, 65.65 269.51 C52.91 260.45, 40.84 248.64, 31.27 236.35 C21.7 224.06, 13.58 210.07, 8.2 195.77 C2.83 181.48, -0.87 165.9, -0.98 150.56 C-1.09 135.21, 2.82 118.39, 7.56 103.72 C12.29 89.05, 18.24 74.73, 27.41 62.53 C36.58 50.33, 49.78 39.7, 62.57 30.53 C75.36 21.37, 89.36 12.67, 104.16 7.54 C118.95 2.42, 133.71 -0.51, 151.35 -0.2 C168.99 0.11, 198.92 6.73, 210 9.41 C221.08 12.08, 218.87 13.32, 217.82 15.85 M159.9 -0.38 C174.96 -2.19, 191.64 2.85, 206.4 7.9 C221.15 12.96, 235.78 20.44, 248.41 29.96 C261.05 39.48, 273.41 52.34, 282.19 65 C290.98 77.67, 296.7 91.35, 301.11 105.94 C305.52 120.53, 309.13 137.25, 308.66 152.54 C308.19 167.82, 303.87 182.99, 298.27 197.66 C292.68 212.34, 284.55 228.49, 275.08 240.59 C265.61 252.69, 254.38 261.94, 241.44 270.26 C228.49 278.58, 212.63 286.01, 197.38 290.51 C182.14 295.01, 165.95 297.59, 149.96 297.25 C133.97 296.91, 116.68 293.82, 101.44 288.46 C86.2 283.11, 71.01 274.55, 58.53 265.13 C46.05 255.72, 35.2 244.65, 26.58 231.99 C17.96 219.32, 11.29 203.7, 6.81 189.13 C2.33 174.56, -0.56 159.48, -0.3 144.56 C-0.04 129.65, 2.78 113.99, 8.37 99.64 C13.97 85.28, 23.53 70.84, 33.28 58.43 C43.03 46.03, 53.66 34.14, 66.87 25.19 C80.07 16.25, 97.24 8.94, 112.51 4.75 C127.77 0.57, 150.79 0.17, 158.46 0.1 C166.13 0.02, 158.38 2.04, 158.51 4.29" stroke="#000000" stroke-width="1" fill="none"></path></g><g transform="translate(396.7080841064453 837.2621154785156) rotate(0 23 10)"><text x="0" y="14" font-family="Virgil, Segoe UI Emoji" font-size="16px" fill="#000000" text-anchor="start" style="white-space: pre;" direction="ltr">ctrctl</text></g><g stroke-linecap="round"><g transform="translate(417.1211762397521 833.709088174008) rotate(355.24464803097186 3.464430743503897 -36.230440124352924)"><path d="M0.72 0.89 C2.03 -11.12, 6.18 -59.55, 7.29 -71.6 M-0.36 0.32 C0.88 -12.09, 5.4 -61.1, 6.61 -73.35" stroke="#364fc7" stroke-width="1" fill="none"></path></g><g transform="translate(417.1211762397521 833.709088174008) rotate(355.24464803097186 3.464430743503897 -36.230440124352924)"><path d="M15.64 -43.47 C13.29 -50.6, 11.77 -58.93, 5.64 -72.93 M13.22 -45.05 C11.67 -56.69, 8.11 -66.7, 6.31 -73.65" stroke="#364fc7" stroke-width="1" fill="none"></path></g><g transform="translate(417.1211762397521 833.709088174008) rotate(355.24464803097186 3.464430743503897 -36.230440124352924)"><path d="M-4.79 -45.41 C-1.97 -52.17, 1.66 -60.01, 5.64 -72.93 M-7.21 -47 C-0.69 -57.8, 3.79 -67.04, 6.31 -73.65" stroke="#364fc7" stroke-width="1" fill="none"></path></g></g><g transform="translate(302.31304931640625 645.404670715332) rotate(0 122 23)"><text x="0" y="32" font-family="Virgil, Segoe UI Emoji" font-size="36px" fill="#000000" text-anchor="start" style="white-space: pre;" direction="ltr">Worker Node2</text></g><g transform="translate(327.1550750732422 685.3168563842773) rotate(0 92 12.5)"><text x="0" y="18" font-family="Virgil, Segoe UI Emoji" font-size="20px" fill="#000000" text-anchor="start" style="white-space: pre;" direction="ltr">(Docker Container)</text></g><g stroke-linecap="round" transform="translate(355.55133056640625 719.9115447998047) rotate(0 72.5 17.5)"><path d="M1.01 1.54 C54.3 -1.81, 109.01 1.03, 146.92 -0.72 M-0.92 0.18 C30.42 -1.42, 59.54 -0.65, 145.13 0.78 M144.7 1.03 C143.27 7.22, 144.23 12.62, 145.07 36.38 M145.85 0.92 C144.55 7.11, 144.24 14.79, 145.73 34.57 M146.77 35.12 C96.74 33.11, 47.94 34.34, 0.27 33.88 M145.07 34.39 C101.3 36.06, 58.6 35.14, -0.59 34.45 M0.29 34.57 C0.67 22.11, -0.88 8.31, -1.59 -0.71 M-0.49 34.75 C0.47 24.31, 0.93 15.22, 0.62 -0.36" stroke="#000000" stroke-width="1" fill="none"></path></g><g transform="translate(360.55133056640625 724.9115447998047) rotate(0 67.5 12.5)"><text x="67.5" y="18" font-family="Virgil, Segoe UI Emoji" font-size="20px" fill="#000000" text-anchor="middle" style="white-space: pre;" direction="ltr">containerd</text></g><g stroke-linecap="round" transform="translate(736.6167755126953 807.9389343261719) rotate(0 61.00750732421875 32.35552978515625)"><path d="M1.43 1.12 C39.02 -2.86, 80.58 -2.51, 120.59 0.92 M0.01 -0.8 C26.51 -0.1, 54.86 -0.21, 122.15 -0.21 M120.85 0.83 C121.05 13.53, 123.81 31.07, 123.68 63.41 M122.21 -0.61 C121.98 20.85, 121.96 40.98, 122.82 65.1 M122.36 64.24 C81.05 62.64, 41.61 65.13, -0.66 65.77 M122.36 65.6 C77.83 64.1, 31.84 63.78, 0.42 65.52 M0.82 66.52 C-0.81 48.22, 0.67 34.02, -0.57 -0.99 M-0.98 65.03 C-0.01 43.3, 0.7 22.68, -0.56 0.53" stroke="#000000" stroke-width="1" fill="none"></path></g><g transform="translate(753.6831817626953 807.0559387207031) rotate(0 43.5 10)"><text x="0" y="14" font-family="Virgil, Segoe UI Emoji" font-size="16px" fill="#000000" text-anchor="start" style="white-space: pre;" direction="ltr">DaemonSet</text></g><g stroke-linecap="round" transform="translate(644.1212615966797 594.6961364746094) rotate(0 154.08969116210938 148.37387084960938)"><path d="M91.34 13.02 C104.12 5, 122.04 1.56, 137.89 -0.05 C153.74 -1.65, 170.93 0.11, 186.44 3.39 C201.95 6.68, 217.26 11.84, 230.94 19.67 C244.62 27.49, 257.93 38.82, 268.52 50.34 C279.11 61.85, 288.03 75.02, 294.48 88.78 C300.92 102.54, 305.45 117.71, 307.2 132.91 C308.94 148.12, 308.39 164.9, 304.96 180.01 C301.52 195.12, 294.74 210.54, 286.6 223.56 C278.46 236.58, 267.71 248.02, 256.1 258.15 C244.49 268.28, 231.22 278.12, 216.93 284.32 C202.64 290.52, 186.24 293.75, 170.34 295.35 C154.44 296.96, 137.29 297.04, 121.53 293.94 C105.76 290.83, 89.61 284.59, 75.77 276.73 C61.93 268.86, 48.89 258.26, 38.5 246.75 C28.12 235.24, 19.73 221.47, 13.47 207.68 C7.2 193.9, 2.51 179.11, 0.91 164.02 C-0.68 148.93, 0.6 132.25, 3.9 117.12 C7.21 101.99, 12.8 86.5, 20.76 73.22 C28.73 59.94, 39.39 47.88, 51.68 37.43 C63.96 26.98, 86.6 14.52, 94.45 10.5 C102.3 6.48, 97.72 10.82, 98.76 13.32 M204.64 9.38 C219.97 12.14, 235.06 21.3, 247.45 30.26 C259.85 39.22, 269.9 50.52, 279 63.15 C288.1 75.79, 297.34 91.33, 302.03 106.08 C306.72 120.82, 307.37 136.44, 307.16 151.62 C306.94 166.8, 305.5 182.91, 300.74 197.17 C295.98 211.44, 288.45 224.98, 278.59 237.21 C268.72 249.45, 254.82 261.84, 241.54 270.6 C228.26 279.36, 214.03 285.39, 198.9 289.8 C183.78 294.2, 166.72 297.44, 150.8 297.03 C134.87 296.62, 118.5 292.26, 103.36 287.33 C88.23 282.39, 72.63 276.56, 59.99 267.43 C47.34 258.29, 36.26 245.28, 27.49 232.54 C18.72 219.79, 12.1 205.28, 7.38 190.98 C2.66 176.67, -0.74 161.91, -0.82 146.71 C-0.91 131.5, 1.65 114.44, 6.89 99.76 C12.12 85.08, 21.04 70.97, 30.58 58.64 C40.11 46.3, 51.2 34.39, 64.11 25.75 C77.03 17.12, 92.8 11.21, 108.05 6.84 C123.29 2.46, 139.81 -0.83, 155.58 -0.49 C171.34 -0.15, 194.83 6.9, 202.64 8.89 C210.46 10.88, 202.83 9.34, 202.45 11.47" stroke="#000000" stroke-width="1" fill="none"></path></g><g transform="translate(777.4698028564453 840.2464904785156) rotate(0 23 10)"><text x="0" y="14" font-family="Virgil, Segoe UI Emoji" font-size="16px" fill="#000000" text-anchor="start" style="white-space: pre;" direction="ltr">ctrctl</text></g><g stroke-linecap="round"><g transform="translate(797.9652707765467 836.7486240354118) rotate(355.24464803097186 2.9427968159369584 -34.79686609240491)"><path d="M-0.99 -0.65 C-0.34 -12.34, 3.43 -59.45, 4.58 -71.22 M0.68 1.63 C1.66 -9.84, 6.09 -58.12, 6.88 -70.13" stroke="#364fc7" stroke-width="1" fill="none"></path></g><g transform="translate(797.9652707765467 836.7486240354118) rotate(355.24464803097186 2.9427968159369584 -34.79686609240491)"><path d="M13.76 -42.52 C10.84 -50.65, 7.87 -63.45, 6.14 -70.12 M15.58 -41.87 C13.39 -47.82, 10.88 -53.68, 7.01 -70.72" stroke="#364fc7" stroke-width="1" fill="none"></path></g><g transform="translate(797.9652707765467 836.7486240354118) rotate(355.24464803097186 2.9427968159369584 -34.79686609240491)"><path d="M-6.69 -44.17 C-2.35 -51.54, 1.96 -63.75, 6.14 -70.12 M-4.87 -43.52 C-2.58 -49, -0.59 -54.49, 7.01 -70.72" stroke="#364fc7" stroke-width="1" fill="none"></path></g></g><g transform="translate(679.0747680664062 648.576545715332) rotate(0 121.5 23)"><text x="0" y="32" font-family="Virgil, Segoe UI Emoji" font-size="36px" fill="#000000" text-anchor="start" style="white-space: pre;" direction="ltr">Worker Node3</text></g><g transform="translate(703.9167938232422 688.4887313842773) rotate(0 92 12.5)"><text x="0" y="18" font-family="Virgil, Segoe UI Emoji" font-size="20px" fill="#000000" text-anchor="start" style="white-space: pre;" direction="ltr">(Docker Container)</text></g><g stroke-linecap="round" transform="translate(736.3130493164062 722.8959197998047) rotate(0 72.5 17.5)"><path d="M0.92 -1.57 C34.11 0.29, 71.41 -0.57, 143.9 -1.1 M-0.21 -0.62 C54.56 -0.07, 107.96 0.22, 144.43 -0.94 M143.7 0.31 C146.19 11.97, 145.43 25.41, 144.19 35.86 M145.39 0.25 C144.82 8.62, 145.22 17.79, 144.35 34.2 M146.05 36.32 C108.08 33.01, 74.29 36.3, 0.98 35.62 M145.81 34.33 C113.96 36.21, 82.27 36.5, -0.23 34.3 M-0.99 35.4 C-0.83 20.88, -1.88 11.08, -0.6 -1.4 M0.53 34.02 C-0.08 22.84, -0.15 10.19, -0.77 -0.57" stroke="#000000" stroke-width="1" fill="none"></path></g><g transform="translate(741.3130493164062 727.8959197998047) rotate(0 67.5 12.5)"><text x="67.5" y="18" font-family="Virgil, Segoe UI Emoji" font-size="20px" fill="#000000" text-anchor="middle" style="white-space: pre;" direction="ltr">containerd</text></g></svg>